Coordinates
version=1
nRows=16
nColumns=33
inDegrees=yes

Units are S.I. units (second, meters, Newtons, ...)
Angles are in degrees.

endheader
time	ground_thorax_rot_x	ground_thorax_rot_y	ground_thorax_rot_z	ground_thorax_tx	ground_thorax_ty	ground_thorax_tz	clav_prot_r	clav_elev_r	scapula_abduction_r	scapula_elevation_r	scapula_upward_rot_r	scapula_winging_r	shoulder_elv_r	plane_of_elev_r	axial_rot_r	elbow_flexion_r	pro_sup_r	wrist_flex_r	wrist_dev_r	clav_prot_l	clav_elev_l	scapula_abduction_l	scapula_elevation_l	scapula_upward_rot_l	scapula_winging_l	shoulder_elv_l	plane_of_elev_l	axial_rot_l	elbow_flexion_l	pro_sup_l	wrist_flex_l	wrist_dev_l
      1.78000000	     20.25216394	     40.37073458	      7.11902811	      0.01830841	      1.01874678	     -0.04786909	    -20.32594624	     31.24116754	    -19.54454097	     22.21791760	     45.00000000	    -11.43149522	     -2.79859738	    -90.00000000	     32.75034144	     62.65200416	      1.26391999	     45.56839073	    -22.28412291	     16.89769492	     -1.20016288	    -45.00000000	     -2.02229951	     11.93645539	     22.36418172	     13.79459981	    -51.62307004	    -27.24544187	     60.96711561	     35.99376422	     -0.10234971	    -24.99999983
      1.79000000	     20.22476573	     40.38013473	      7.17298012	      0.01823402	      1.01875892	     -0.04790624	    -20.30744648	     31.23821007	    -19.51062007	     22.21779513	     45.00000000	    -11.42961012	     -2.77092169	    -90.00000000	     32.72266914	     62.70717005	      1.24999020	     45.54128058	    -22.31054366	     16.88475761	     -1.25095442	    -45.00000000	     -1.97094751	     11.98363475	     22.35319450	     13.77292558	    -51.53809417	    -27.26630109	     61.06797865	     35.96449375	     -0.16208932	    -24.99999983
      1.80000000	     20.63758465	     40.24052158	      7.00182296	      0.01837692	      1.01862207	     -0.04759614	    -20.16191847	     31.43892395	    -19.46945476	     22.41039538	     45.00000000	    -11.30849457	     -2.66285606	    -90.00000000	     32.61477843	     63.36978114	      1.09638430	     44.39082768	    -22.86406037	     16.99758959	     -1.96147390	    -45.00000000	     -1.51249760	     11.62070669	     22.15884873	     13.97578805	    -51.62814802	    -27.33568829	     61.37660396	     35.08038488	     -1.61298002	    -24.99999983
      1.81000000	     20.57542195	     40.24980688	      7.07284774	      0.01832526	      1.01873554	     -0.04762569	    -20.14636792	     31.44116669	    -19.43969862	     22.41424109	     45.00000000	    -11.30272602	     -2.64931065	    -90.00000000	     32.60123495	     63.41504650	      1.10640895	     44.40158932	    -22.86291383	     16.97899943	     -1.99307722	    -45.00000000	     -1.47042030	     11.68714532	     22.14462693	     13.95876020	    -51.51218884	    -27.33111876	     61.45391219	     35.06212229	     -1.62762489	    -24.99999983
      1.82000000	     20.55131642	     40.14167750	      7.06100153	      0.01835828	      1.01831283	     -0.04763948	    -20.08575305	     31.47916927	    -19.36289474	     22.45505392	     45.00000000	    -11.26888162	     -2.58216932	    -90.00000000	     32.53413081	     63.74138114	      1.24398693	     44.42888733	    -22.84035559	     16.98606946	     -1.89504395	    -45.00000000	     -1.55462548	     11.65736218	     22.17806559	     13.90809203	    -51.33526118	    -27.18040853	     61.78296562	     34.83572683	     -1.67456970	    -24.99999983
      1.83000000	     20.47873881	     40.16540009	      7.14090675	      0.01828976	      1.01851569	     -0.04771482	    -20.06346089	     31.48432624	    -19.32284214	     22.46227010	     45.00000000	    -11.26041126	     -2.57140898	    -90.00000000	     32.52337235	     63.78672546	      1.25339645	     44.43331600	    -22.84030621	     16.96454383	     -1.94305445	    -45.00000000	     -1.49656298	     11.73577444	     22.16101245	     13.89844234	    -51.18875107	    -27.15721017	     61.86224525	     34.80956642	     -1.68575513	    -24.99999983
      1.84000000	     20.52182630	     40.02893426	      7.05948186	      0.01827976	      1.01812114	     -0.04770419	    -19.98450088	     31.52902407	    -19.21821629	     22.51130024	     45.00000000	    -11.21800844	     -2.47545374	    -90.00000000	     32.42746947	     64.21226437	      1.40514985	     44.34138918	    -22.86035198	     17.01889480	     -1.94297749	    -45.00000000	     -1.54797454	     11.54183948	     22.17205695	     13.85291670	    -50.87002280	    -26.76511172	     62.24055943	     34.37496832	     -1.60530364	    -24.99999983
      1.85000000	     20.44079531	     40.06559290	      7.15802785	      0.01820001	      1.01835470	     -0.04780977	    -19.95592693	     31.53700680	    -19.16766710	     22.52184784	     45.00000000	    -11.20636717	     -2.46548728	    -90.00000000	     32.41750470	     64.25655121	      1.41287363	     44.34167017	    -22.86194250	     16.99379275	     -2.00594881	    -45.00000000	     -1.47412562	     11.63485542	     22.14734689	     13.85247864	    -50.69892199	    -26.73898693	     62.31614408	     34.34532758	     -1.60871928	    -24.99999983
      1.86000000	     20.36476145	     40.09812127	      7.25680195	      0.01813766	      1.01856829	     -0.04789316	    -19.92858892	     31.54133818	    -19.11435560	     22.52890036	     45.00000000	    -11.19627400	     -2.45814378	    -90.00000000	     32.41016269	     64.32686895	      1.42150968	     44.34654910	    -22.86479901	     16.96871386	     -2.06712938	    -45.00000000	     -1.40180644	     11.72819792	     22.12511855	     13.84955143	    -50.51986442	    -26.70842332	     62.41874178	     34.30897560	     -1.61137401	    -24.99999983
      1.87000000	     20.80808189	     39.95743525	      7.02525892	      0.01793097	      1.01842566	     -0.04765738	    -19.72779190	     31.73893983	    -18.96020153	     22.72689788	     45.00000000	    -11.06064464	     -2.29031815	    -90.00000000	     32.24252105	     65.04671818	      1.69122899	     43.56063907	    -23.16429516	     17.31465570	     -2.71808725	    -45.00000000	     -1.21337116	     10.53094078	     21.99101452	     14.11273116	    -49.57615744	    -25.67448579	     62.91988263	     32.52431300	     -0.20049791	    -24.99999983
      1.88000000	     20.72184532	     40.00563565	      7.15552181	      0.01785831	      1.01858787	     -0.04774751	    -19.69739575	     31.74758787	    -18.90660898	     22.73831215	     45.00000000	    -11.04813524	     -2.26572405	    -90.00000000	     32.21792914	     65.11989420	      1.70248262	     43.57912700	    -23.16843916	     17.28218492	     -2.76056007	    -45.00000000	     -1.14745824	     10.65265929	     21.97207648	     14.12225457	    -49.39706366	    -25.68244881	     63.04285195	     32.49105563	     -0.20155616	    -24.99999983
      1.89000000	     20.68249170	     40.18834898	      7.25035185	      0.01783312	      1.01820072	     -0.04750776	    -19.69937719	     31.87366865	    -19.08793002	     22.84834020	     45.00000000	    -11.00299009	     -2.20767844	    -90.00000000	     32.16012709	     65.47276497	      2.19156049	     43.32093209	    -23.33256784	     17.42988017	     -2.95639233	    -45.00000000	     -1.13625214	     10.12755359	     21.94278400	     15.15573124	    -48.83619729	    -26.55307197	     63.69115787	     30.83885325	      1.60065628	    -24.99999983
      1.90000000	     20.59289935	     40.22774176	      7.37741935	      0.01781998	      1.01832733	     -0.04760453	    -19.66336169	     31.86746244	    -19.00946561	     22.84763359	     45.00000000	    -10.99597043	     -2.17588188	    -90.00000000	     32.12833140	     65.54298501	      2.19303757	     43.33841445	    -23.34221413	     17.39716705	     -3.01359577	    -45.00000000	     -1.05856613	     10.24956089	     21.92157840	     15.16591786	    -48.63301286	    -26.52141734	     63.80390096	     30.80807813	      1.57958167	    -24.99999983
      1.91000000	     20.60638363	     40.07897551	      7.23286835	      0.01784414	      1.01789998	     -0.04755716	    -19.60150056	     31.79099410	    -18.76318833	     22.78815643	     45.00000000	    -11.00144351	     -2.11800713	    -90.00000000	     32.07049092	     65.94844833	      2.19776638	     43.39735148	    -23.44442540	     17.41957924	     -3.05324561	    -45.00000000	     -1.04794774	     10.17338818	     21.90850982	     15.32532769	    -48.24266100	    -26.34837617	     64.19934917	     30.49581791	      1.71424466	    -24.99999983
      1.92000000	     20.52069209	     40.14326021	      7.37767951	      0.01782002	      1.01801605	     -0.04769965	    -19.56344924	     31.78658453	    -18.67167058	     22.78894477	     45.00000000	    -10.99139542	     -2.09594883	    -90.00000000	     32.04843379	     66.01919484	      2.19618403	     43.41065651	    -23.45345033	     17.38552605	     -3.13209807	    -45.00000000	     -0.95094842	     10.30438957	     21.87531248	     15.34536396	    -48.01202737	    -26.32282331	     64.30161972	     30.46139933	      1.72140421	    -24.99999983
      1.93000000	     20.83907278	     40.32274138	      7.13735488	      0.01764025	      1.01793213	     -0.04739669	    -19.55178507	     31.84609095	    -18.72934154	     22.84290137	     45.00000000	    -10.96347951	     -2.02530887	    -90.00000000	     31.97801464	     66.44092728	      1.89799304	     43.22033708	    -23.82446258	     17.77418814	     -3.79374038	    -45.00000000	     -0.81288172	      8.92032554	     21.75059439	     16.40108776	    -46.54736865	    -26.17447128	     64.80120572	     28.81600081	      4.11353378	    -24.99999983
